name rise38.3101peak57.3503fall81.6963.mot
datacolumns 19
datarows 15
range 11.36663100000000 11.38996600000000
endheader
time	ground_force1_vx	ground_force1_vy	ground_force1_vz	ground_force1_px	ground_force1_py	ground_force1_pz	ground_force2_vx	ground_force2_vy	ground_force2_vz	ground_force2_px	ground_force2_py	ground_force2_pz	ground_torque1_x	ground_torque1_y	ground_torque1_z	ground_torque2_x	ground_torque2_y	ground_torque2_z	
11.36663100000000	10.84705300000000	661.72302200000001	37.80189500000000	0.24975400000000	0.00000000000000	0.07848100000000	0.00000000000000	0.00000000000000	0.00000000000000	0.00000000000000	0.00000000000000	0.00000000000000	0.00000000000000	17.24164300000000	0.00000000000000	0.00000000000000	0.00000000000000	0.00000000000000	
11.36829200000000	10.24283600000000	662.93204400000002	37.85296200000000	0.24926400000000	0.00000000000000	0.07844800000000	0.00000000000000	0.00000000000000	0.00000000000000	0.00000000000000	0.00000000000000	0.00000000000000	0.00000000000000	17.35362200000000	0.00000000000000	0.00000000000000	0.00000000000000	0.00000000000000	
11.36996300000000	9.62992200000000	664.19752800000003	37.90631500000000	0.24879600000000	0.00000000000000	0.07841300000000	0.00000000000000	0.00000000000000	0.00000000000000	0.00000000000000	0.00000000000000	0.00000000000000	0.00000000000000	17.46984200000000	0.00000000000000	0.00000000000000	0.00000000000000	0.00000000000000	
11.37163000000000	9.00788800000000	665.51828100000000	37.96166500000000	0.24834900000000	0.00000000000000	0.07837800000000	0.00000000000000	0.00000000000000	0.00000000000000	0.00000000000000	0.00000000000000	0.00000000000000	0.00000000000000	17.59004800000000	0.00000000000000	0.00000000000000	0.00000000000000	0.00000000000000	
11.37329800000000	8.37633500000000	666.89319999999998	38.01873900000000	0.24791700000000	0.00000000000000	0.07834300000000	0.00000000000000	0.00000000000000	0.00000000000000	0.00000000000000	0.00000000000000	0.00000000000000	0.00000000000000	17.71399100000000	0.00000000000000	0.00000000000000	0.00000000000000	0.00000000000000	
11.37495700000000	7.73488600000000	668.32127500000001	38.07729100000000	0.24749700000000	0.00000000000000	0.07830800000000	0.00000000000000	0.00000000000000	0.00000000000000	0.00000000000000	0.00000000000000	0.00000000000000	0.00000000000000	17.84142500000000	0.00000000000000	0.00000000000000	0.00000000000000	0.00000000000000	
11.37663100000000	7.08318800000000	669.80158200000005	38.13709500000000	0.24708600000000	0.00000000000000	0.07827400000000	0.00000000000000	0.00000000000000	0.00000000000000	0.00000000000000	0.00000000000000	0.00000000000000	0.00000000000000	17.97211400000000	0.00000000000000	0.00000000000000	0.00000000000000	0.00000000000000	
11.37829500000000	6.42092000000000	671.33328200000005	38.19794800000000	0.24667900000000	0.00000000000000	0.07824000000000	0.00000000000000	0.00000000000000	0.00000000000000	0.00000000000000	0.00000000000000	0.00000000000000	0.00000000000000	18.10582800000000	0.00000000000000	0.00000000000000	0.00000000000000	0.00000000000000	
11.37995800000000	5.74778500000000	672.91561600000000	38.25967400000000	0.24627200000000	0.00000000000000	0.07820800000000	0.00000000000000	0.00000000000000	0.00000000000000	0.00000000000000	0.00000000000000	0.00000000000000	0.00000000000000	18.24234400000000	0.00000000000000	0.00000000000000	0.00000000000000	0.00000000000000	
11.38163100000000	5.06352000000000	674.54790200000002	38.32212000000000	0.24586300000000	0.00000000000000	0.07817700000000	0.00000000000000	0.00000000000000	0.00000000000000	0.00000000000000	0.00000000000000	0.00000000000000	0.00000000000000	18.38144900000000	0.00000000000000	0.00000000000000	0.00000000000000	0.00000000000000	
11.38329800000000	4.36789500000000	676.22952399999997	38.38515800000000	0.24544700000000	0.00000000000000	0.07814700000000	0.00000000000000	0.00000000000000	0.00000000000000	0.00000000000000	0.00000000000000	0.00000000000000	0.00000000000000	18.52293800000000	0.00000000000000	0.00000000000000	0.00000000000000	0.00000000000000	
11.38496500000000	3.66071100000000	677.95993399999998	38.44868700000000	0.24502200000000	0.00000000000000	0.07811900000000	0.00000000000000	0.00000000000000	0.00000000000000	0.00000000000000	0.00000000000000	0.00000000000000	0.00000000000000	18.66661700000000	0.00000000000000	0.00000000000000	0.00000000000000	0.00000000000000	
11.38662400000000	2.94180900000000	679.73863800000004	38.51263400000000	0.24458200000000	0.00000000000000	0.07809400000000	0.00000000000000	0.00000000000000	0.00000000000000	0.00000000000000	0.00000000000000	0.00000000000000	0.00000000000000	18.81230100000000	0.00000000000000	0.00000000000000	0.00000000000000	0.00000000000000	
11.38829900000000	2.21106400000000	681.56519100000003	38.57694900000000	0.24412600000000	0.00000000000000	0.07807100000000	0.00000000000000	0.00000000000000	0.00000000000000	0.00000000000000	0.00000000000000	0.00000000000000	0.00000000000000	18.95981500000000	0.00000000000000	0.00000000000000	0.00000000000000	0.00000000000000	
11.38996600000000	1.46839200000000	683.43919400000004	38.64161200000000	0.24365000000000	0.00000000000000	0.07805100000000	0.00000000000000	0.00000000000000	0.00000000000000	0.00000000000000	0.00000000000000	0.00000000000000	0.00000000000000	19.10899500000000	0.00000000000000	0.00000000000000	0.00000000000000	0.00000000000000	
